<svg xmlns="http://www.w3.org/2000/svg" viewBox="0 0 500 180.54"><defs><style>.cls-1{fill:#404041;}.cls-2{fill:#6ba84b;}</style></defs><g id="Layer_2" data-name="Layer 2"><g id="Layer_1-2" data-name="Layer 1"><path class="cls-1" d="M66.68,88.59a7,7,0,0,0,4.9-1.72,5.88,5.88,0,0,0,1.85-4.5,6.25,6.25,0,0,0-1.85-4.7,6.78,6.78,0,0,0-4.9-1.79H6.88A6.83,6.83,0,0,0,2,77.8a6.61,6.61,0,0,0-2,5v89.58a6.76,6.76,0,0,0,6.88,6.88h59.8a6.78,6.78,0,0,0,4.9-1.79,6.23,6.23,0,0,0,1.85-4.69,5.87,5.87,0,0,0-1.85-4.5,6.91,6.91,0,0,0-4.9-1.72H13.76V133.44h38a6.78,6.78,0,0,0,4.9-1.79,6.56,6.56,0,0,0,0-9.13,6.77,6.77,0,0,0-4.9-1.78h-38V88.59Z"></path><path class="cls-1" d="M120.4,122.84H90.9a6.66,6.66,0,0,0-4.83,1.86,6.47,6.47,0,0,0-1.92,4.89,6.31,6.31,0,0,0,1.92,4.76,6.66,6.66,0,0,0,4.83,1.86h29.5a6.35,6.35,0,0,0,6.62-6.62,6.61,6.61,0,0,0-1.85-4.89A6.46,6.46,0,0,0,120.4,122.84Z"></path><path class="cls-1" d="M205.54,129.54q-8.79-8-24.54-9.6-10.32-1.05-15.81-3.7T157.65,110a15.29,15.29,0,0,1-2.05-7.61,12.43,12.43,0,0,1,6.61-11.58q6.61-3.76,16.41-3.64a27.91,27.91,0,0,1,9.66,1.52,23.15,23.15,0,0,1,7.14,4.17,23.73,23.73,0,0,1,5.16,6.48,7.43,7.43,0,0,0,4.37,3.44,6.16,6.16,0,0,0,5.42-.66,5.43,5.43,0,0,0,2.58-4,8.23,8.23,0,0,0-1.52-5.49,40.74,40.74,0,0,0-7.8-9.4,33.56,33.56,0,0,0-10.52-6.22A40.25,40.25,0,0,0,179,74.69a52.54,52.54,0,0,0-18.73,3.18A30.44,30.44,0,0,0,147,87.13,22.87,22.87,0,0,0,142.1,102q0,11.91,9.39,20t25.8,9.66q12.57,1.32,18.07,6.88A17.47,17.47,0,0,1,200.85,151a13.69,13.69,0,0,1-3.31,9.33,21,21,0,0,1-8.67,5.75,33.51,33.51,0,0,1-11.71,2,34.29,34.29,0,0,1-10.85-1.72,30.21,30.21,0,0,1-8.8-4.5,17.2,17.2,0,0,1-5.22-6.09,8.19,8.19,0,0,0-3.51-3.77,7.25,7.25,0,0,0-9.39,2.32,5.23,5.23,0,0,0-.07,5.16,29.24,29.24,0,0,0,8.34,11A41.94,41.94,0,0,0,161,177.9a49.3,49.3,0,0,0,16.14,2.64A51.73,51.73,0,0,0,191,178.69a37.17,37.17,0,0,0,11.91-5.62,28.72,28.72,0,0,0,8.33-9.33,26.44,26.44,0,0,0,3.11-13.1Q214.34,137.55,205.54,129.54Z"></path><path class="cls-1" d="M296,75.88H225.19a6.36,6.36,0,1,0,0,12.71h28.58v83.75a6.88,6.88,0,1,0,13.76,0V88.59H296a6.36,6.36,0,1,0,0-12.71Z"></path><path class="cls-1" d="M495.7,92.36a31,31,0,0,0-12-12.11,35,35,0,0,0-17.6-4.37H439.67a6.82,6.82,0,0,0-4.9,1.92,6.61,6.61,0,0,0-2,5v89.58a6.76,6.76,0,0,0,6.88,6.88,6.61,6.61,0,0,0,5-2,6.79,6.79,0,0,0,1.92-4.9v-29h19.58a35.89,35.89,0,0,0,17.6-4.23,30.47,30.47,0,0,0,12-11.78,34,34,0,0,0,4.3-17.2A36,36,0,0,0,495.7,92.36Zm-11.58,28.38a19.25,19.25,0,0,1-7.27,7.28,21.3,21.3,0,0,1-10.72,2.64H446.55V88.59h19.58a20.39,20.39,0,0,1,10.72,2.78,19.75,19.75,0,0,1,7.27,7.6,22.84,22.84,0,0,1,2.65,11.18A20.92,20.92,0,0,1,484.12,120.74Z"></path><path class="cls-1" d="M192.25,40l7.23,1.44.06-.24c-1.82-.29-3.65-.55-5.23-1.92l5.11,1,.05-.14-4.92-1.28.06-.25,3,.53.05-.17-3.09-1.13,0-.08a27.07,27.07,0,0,0,3.67.54c3.45.08,6.94.17,10.17-1.36,5.86-2.77,9.9-8.21,9.31-15.36a14.84,14.84,0,1,0-28.37,7.35,4.08,4.08,0,1,1-7.51,3.2,23,23,0,1,1,25.4,13.44c-1,.2-2,.25-3.05.35a17.44,17.44,0,0,1-2.69.17c-1-.06-2.06-.32-3.1-.48a7.23,7.23,0,0,1-1.05-.06,21.74,21.74,0,0,1-6.64-3c-.1-.07-.19-.16-.46-.38a10.39,10.39,0,0,0,3.4,1.08,29.29,29.29,0,0,1,3.61.9,4.11,4.11,0,0,0,2.17.25c1.29-.55,2.54.17,3.79-.31-.79-.07-1.59-.13-2.38-.21-.41-.05-.92.23-1.16-.42-.05-.14-.52-.13-.8-.18l-4.29-.88.06-.29,2.91.71,0-.2a16.87,16.87,0,0,1-2.45-.73c-1-.47-2-1.11-3-1.68Zm1,3.32-.09.29,4,1.34.1-.28Z"></path><path class="cls-1" d="M169.66,23.42h6.2v.94c0,6.24,0,12.47,0,18.71,0,.65-.17.94-.83,1.1a49.9,49.9,0,0,1-15.81,1.6C150.46,45,143.93,39.25,142,30.54a29.37,29.37,0,0,1,.62-16.64C145.42,6,151,1.34,159.36.28a27.39,27.39,0,0,1,15.32,2.35c.3.14.59.32.92.51-.67,1.73-1.31,3.41-2,5.13a21.57,21.57,0,0,0-10.36-2.74c-7.32-.19-12.35,3.36-14.53,10.34a24.06,24.06,0,0,0,.43,15.91c2,5.42,6.16,8.29,11.93,8.71a28.49,28.49,0,0,0,7.81-.58c.6-.12.76-.36.76-1,0-4.84,0-9.68,0-14.51Z"></path><path class="cls-1" d="M58.49,46h-6V45c0-5.67,0-11.33,0-17a35,35,0,0,0-.46-5.51c-.67-3.86-2.79-5.77-6.71-5.8a58.33,58.33,0,0,0-6.67.72c-.72.08-.94.43-.93,1.18,0,8.77,0,17.54,0,26.3V46H31.9V1.12l5.84-1V12.55c1.49-.34,2.88-.73,4.3-1a18.19,18.19,0,0,1,8.36.49c4.54,1.41,6.88,4.72,7.61,9.26a36.6,36.6,0,0,1,.45,5.43c.06,6.06,0,12.13,0,18.19Z"></path><path class="cls-1" d="M88.29,39c.29,1.67.55,3.26.86,5.08-1.34.37-2.68.82-4,1.12a24.47,24.47,0,0,1-10.5.14c-5.77-1.24-9.6-4.67-11.13-10.4a21.85,21.85,0,0,1,1.06-15.4,14.31,14.31,0,0,1,14.21-8.24c4,.27,7.47,1.67,9.84,5.1a15.74,15.74,0,0,1,2.55,7.5c.21,2,.22,4.08.33,6.23H68.89c.24,6.07,3.22,9.64,8.38,10.27A21.81,21.81,0,0,0,88.29,39Zm-3-13.67c-.08-.86-.13-1.62-.24-2.38a7.55,7.55,0,0,0-5.63-6.46c-5.65-1.14-10,3-10.38,8.84Z"></path><path class="cls-1" d="M124.29,30.14H101.83c.23,6,3.22,9.61,8.41,10.22a21.82,21.82,0,0,0,11-1.4l.87,5.08c-1.37.38-2.7.83-4.07,1.13a24.11,24.11,0,0,1-11.33-.07A13.62,13.62,0,0,1,96.34,34.63a21.89,21.89,0,0,1,1.15-15.15,14.31,14.31,0,0,1,14.05-8.23c3.61.22,6.8,1.3,9.23,4.12a13.45,13.45,0,0,1,2.58,4.94A29.83,29.83,0,0,1,124.29,30.14ZM102,25.27h16.24c-.07-.74-.08-1.42-.2-2.09-.56-3.1-1.94-5.63-5.17-6.57C107.37,15,102.38,18.94,102,25.27Z"></path><path class="cls-1" d="M13.23.11V11.22H26.29v5.21h-13c0,.32-.05.54-.05.76,0,5.41,0,10.82,0,16.23a14,14,0,0,0,.52,3.52,4.76,4.76,0,0,0,4.78,3.76,14.32,14.32,0,0,0,6.84-1.08c.3-.14.62-.24,1-.39.39,1.65.78,3.24,1.12,4.84,0,.14-.22.44-.4.51A19.69,19.69,0,0,1,14,45.6c-3.85-1.08-5.82-3.92-6.5-7.69A32.84,32.84,0,0,1,7,32.4C7,22.3,7,12.19,7,2.09c0-.71.17-1,.91-1.07C9.63.79,11.38.43,13.23.11Z"></path><path class="cls-2" d="M334.93,165l16,3.19.12-.54c-4-.64-8.08-1.21-11.56-4.24l11.31,2.12.1-.32L340,162.39l.13-.57,6.7,1.18.13-.37-6.84-2.51.06-.18a62.75,62.75,0,0,0,8.11,1.21c7.65.16,15.37.37,22.52-3,13-6.12,21.92-18.16,20.6-34a32.83,32.83,0,1,0-62.78,16.25A9,9,0,1,1,312,147.5c-12.88-29.68,4.91-63.9,36.78-70.11a50.86,50.86,0,1,1,19.41,99.85,65.85,65.85,0,0,1-6.74.76,38.45,38.45,0,0,1-6,.39c-2.3-.14-4.57-.72-6.86-1.06a18,18,0,0,1-2.34-.14,48,48,0,0,1-14.67-6.73c-.23-.16-.43-.34-1-.83a23,23,0,0,0,7.51,2.38c2.7.24,5.32,1.39,8,2,1.59.36,3.5,1.09,4.79.54,2.86-1.21,5.63.39,8.4-.67-1.76-.16-3.52-.29-5.27-.48-.9-.1-2,.52-2.57-.93-.11-.31-1.16-.27-1.77-.4l-9.5-1.94.14-.64,6.44,1.56.11-.44a36.27,36.27,0,0,1-5.41-1.6c-2.3-1-4.44-2.46-6.64-3.72Zm2.3,7.35-.2.65,8.74,2.94.21-.62Z"></path></g></g></svg>